<svg xmlns="http://www.w3.org/2000/svg" viewBox="0 0 83 91" enable-background="new 0 0 83 91" width="364.83516483516485"  height="400" >
	<g id="logo">
		<path fill="#003263" d="M8.1 18s3.4-1.9 5.8-3 3.7-1.7 3.7-1.7 3.3-4.4 6.5-7.5 6-3.5 8-3.1c1.9.3 2.8 2.1 2.8 3v1.7s10.6-1.9 20.2-.7 15.2 4.2 18.4 6.6c3.3 2.4 4.7 5.2 4.7 5.2V0H8.1v18m6.1 1.6s-2.1 5.1-3.3 8.2-2.3 6.6-2.3 6.6-3.7.6-6.3-.8C-.3 32.1-.5 29.4.5 27.9c1.3-1.9 6.9-6.1 13.7-8.3"></path>
		<path fill="#003263" d="M32.4 28.3l-1.3-2.4s-4.6 2.9-8.2 4.4c-3.6 1.6-7.8 2.9-7.8 2.9s-.6 0-.3-1.1c.2-1.1 3.5-9.6 5.1-12.3 1.6-2.6 3.5-4.8 9.1-6.2 5.5-1.3 21.7-4.1 32.4-.3s12.4 10.1 13.1 12.2c.7 2.1 2.1 10.7-8.3 19.9-10.5 9.3-21.2 16.5-35 16.9-10 .3-14.7-4.8-16.6-8.4s-2.3-8.8-2.1-10.9.1-2.6 1.5-3.4c1.3-.7 9.8-4.8 13-7.1 3.1-2.3 5.4-4.2 5.4-4.2"></path>
		<path fill="#003263" d="M8.1 57.1v13.2h70.1V33.9s-3.7 12.7-22.6 24.4C39.1 68.7 31 68.1 26.1 67.9c-4.8-.1-12.3-1.3-18-10.8"></path>
		<path fill="#59ad40" d="M43.8 53.3s10.1 10.4 16.9 16.4c6.7 5.9 19.9 8.6 21.2 8.9 1.3.2 1.2-1 1.2-1l-.7-3c-3.1-1.1-5.2-2.1-8.9-4.2S63.3 62.7 60.4 60c-2.9-2.8-9.5-10.6-9.5-10.6s2.4 0 4.1-.1 1.6-1.9 1.7-4.1c.1-2.1-1.1-2.6-3.5-3.3-2.4-.7-7.5-1.6-9.4-1.8-1.9-.2-2.9.7-4.4 1.8-1.6 1.1-1.3 2.9-1.3 2.9l.3 11.8s.1 1.9 1.8 2 2.2-.6 2.6-.9c.3-.4.6-1.3.7-2.2-.3-1.1-.1-2.5.3-2.2"></path>
	</g>
	<g id="text" style="opacity: 1;">
		<path fill="#003263" d="M16.9 88.6v.4c0 .1 0 .1-.1.2 0 .1-.1.1-.1.1h-.1c-.1 0-.3-.1-.6-.1-.2-.1-.5-.2-.7-.3-.3-.1-.5-.3-.8-.5-.3-.2-.5-.4-.8-.7-.2.1-.4.1-.7.2-.3.1-.6.1-.9.1-.6 0-1.2-.1-1.6-.2-.5-.1-.8-.4-1.2-.8-.3-.3-.6-.8-.7-1.2s-.2-1.1-.2-1.8c0-.6.1-1.2.3-1.7.1-.5.4-1 .8-1.3.3-.3.7-.6 1.2-.8.5-.2 1-.3 1.7-.3.6 0 1.1.1 1.6.2s.8.4 1.2.8c.3.3.6.8.7 1.2.1.5.2 1.1.2 1.8 0 .3 0 .7-.1 1 0 .1 0 .4-.1.7-.1.3-.2.5-.3.8-.1.2-.3.4-.4.6.3.2.5.4.7.5.2.1.3.2.5.3.1.1.2.1.3.1.1 0 .1.1.2.1.1.1.1.1.1.2-.1.1-.1.3-.1.4zm-2.5-4.7c0-.4 0-.8-.1-1.1l-.3-.9c-.1-.3-.3-.4-.6-.6-.3-.1-.6-.2-1-.2s-.7.1-1 .2-.4.4-.6.7-.3.6-.3.9c-.1.3-.1.7-.1 1 0 .4 0 .8.1 1.2l.3.9c.1.3.3.4.6.6s.6.2 1 .2.7-.1 1-.2c.3-.1.5-.3.6-.6.1-.3.3-.6.3-.9.1-.4.1-.8.1-1.2zm8.3 3.8v.1l-.1.1c-.1 0-.1.1-.2.1h-.7c-.1 0-.1 0-.2-.1-.1 0-.1-.1-.1-.1V87c-.3.3-.6.6-.9.8-.3.1-.6.3-1 .3-.3 0-.7-.1-1-.2s-.5-.3-.6-.5c-.1-.2-.3-.5-.3-.8-.1-.3-.1-.6-.1-1v-3.4l.1-.1s.1-.1.2-.1h.7c.1 0 .2 0 .2.1.1 0 .1.1.1.1l.1.1v3.1c0 .3 0 .5.1.6s.1.3.1.4c.1.1.1.2.3.3.1.1.3.1.4.1.2 0 .4-.1.6-.2.2-.1.4-.3.6-.6v-3.7l.1-.1c.1 0 .1-.1.2-.1h.7c.1 0 .2 0 .2.1.1 0 .1.1.1.1l.1.1v5.3h.3zm3.2-7.3c0 .3-.1.6-.2.6-.1.1-.3.2-.7.2s-.6-.1-.7-.1c-.1-.1-.2-.3-.2-.6s.1-.6.2-.6c.1-.1.3-.2.7-.2s.6.1.7.2c.1 0 .2.2.2.5zm-.1 7.3c0 .1 0 .1-.1.1l-.1.1c-.1 0-.1.1-.2.1h-.7c-.1 0-.2 0-.2-.1-.1 0-.1-.1-.1-.1l-.1-.1v-5.5c0-.1 0-.1.1-.1l.1-.1c.1 0 .1-.1.2-.1h.7c.1 0 .2 0 .2.1.1 0 .1.1.1.1l.1.1v5.5zm6.7 0c0 .1 0 .1-.1.1l-.1.1c-.1 0-.1.1-.2.1h-.7c-.1 0-.2 0-.2-.1-.1 0-.1-.1-.1-.1l-.1-.1v-3.1c0-.3 0-.5-.1-.6s-.1-.3-.1-.4c-.1-.1-.1-.2-.3-.3-.1-.1-.3-.1-.4-.1-.2 0-.4.1-.6.2-.2.1-.4.3-.6.6v3.6c0 .1 0 .1-.1.1l-.1.1s-.1.1-.2.1h-.7c-.1 0-.2 0-.2-.1-.1 0-.1-.1-.1-.1l-.1-.1V82l.1-.1c.1 0 .1-.1.2-.1h.7c.1 0 .1 0 .2.1.1 0 .1.1.1.1v.8c.3-.3.6-.6.9-.8.3-.1.6-.3 1-.3.3 0 .7.1 1 .2.3.1.5.3.6.5.1.2.3.5.3.8.1.3.1.6.1 1l-.1 3.5zm4.6-.5v.4c0 .1-.1.1-.1.2l-.1.1c-.1 0-.1.1-.3.1-.1 0-.2.1-.3.1H36c-.3 0-.6-.1-.8-.1l-.6-.3c-.2-.1-.3-.3-.3-.6s-.1-.6-.1-.9v-2.8h-.6c-.1 0-.1-.1-.2-.1-.1-.1-.1-.3-.1-.5v-.3c0-.1 0-.1.1-.2 0-.1.1-.1.1-.1h.8v-1.3l.1-.1c.1 0 .1-.1.2-.1h.7c.1 0 .2 0 .2.1.1 0 .1.1.1.1l.1.1v1.2H37l.1.1c0 .1.1.1.1.2v.3c0 .2 0 .4-.1.5-.1.1-.1.1-.2.1h-1.2V86c0 .3.1.6.1.7s.3.2.5.2h.2c.1 0 .1 0 .2-.1.1 0 .1-.1.1-.1h.2l.1.1v.4zm6-2.4c0 .2-.1.3-.1.4-.1.1-.2.1-.3.1h-3.3c0 .2 0 .4.1.6.1.2.1.3.3.5.1.1.3.2.5.3.2.1.4.1.7.1.3 0 .5 0 .7-.1.2-.1.3-.1.6-.1.1-.1.3-.1.3-.1.1-.1.2-.1.2-.1h.1l.1.1v.8c0 .1 0 .1-.1.1l-.1.1s-.1.1-.2.1c-.1.1-.3.1-.5.1-.2.1-.4.1-.6.1-.2 0-.5.1-.8.1-.5 0-.9-.1-1.2-.2-.3-.1-.7-.3-.9-.6-.3-.3-.4-.6-.6-1-.1-.3-.2-.8-.2-1.3s.1-.9.2-1.3.3-.7.6-1c.2-.3.6-.5.9-.6.3-.1.8-.2 1.2-.2.5 0 .8.1 1.2.2.3.1.6.3.8.6.2.2.3.6.5.8.1.3.1.7.1 1l-.2.5zm-1.5-.5c0-.4-.1-.8-.3-1-.2-.3-.5-.3-.8-.3-.2 0-.3.1-.5.1-.1.1-.3.1-.3.3l-.2.4c-.1.1-.1.3-.1.6h2.2zm6.7 1.8c0 .3-.1.6-.2.8-.1.2-.3.4-.5.6-.2.1-.5.3-.8.3-.3.1-.6.1-1 .1-.2 0-.4 0-.6-.1-.2 0-.3-.1-.5-.1-.1-.1-.3-.1-.3-.1-.1-.1-.1-.1-.2-.1-.1-.1-.1-.1-.1-.2s-.1-.2-.1-.4v-.3c0-.1 0-.1.1-.1 0-.1.1-.1.1-.1h.1c.1 0 .1 0 .2.1s.2.1.3.1c.1.1.3.1.5.1.2.1.3.1.6.1.1 0 .3 0 .3-.1.1 0 .2-.1.3-.1l.2-.2c.1-.1.1-.2.1-.3 0-.1-.1-.2-.1-.3-.1-.1-.2-.1-.3-.2l-.4-.2c-.1-.1-.3-.1-.5-.2s-.3-.1-.5-.2-.3-.2-.4-.3-.2-.3-.3-.5c-.1-.2-.1-.4-.1-.7s.1-.5.1-.7c.1-.2.3-.4.4-.6.2-.1.4-.3.7-.3.3-.1.6-.1.9-.1.1 0 .3 0 .5.1.1 0 .3.1.4.1.1.1.2.1.3.1.1.1.1.1.2.1s.1.1.1.1 0 .1.1.1v.8c0 .1 0 .1-.1.1h-.1c-.1 0-.1 0-.1-.1s-.2-.1-.3-.1c-.1-.1-.3-.1-.4-.1-.1-.1-.3-.1-.6-.1-.1 0-.3 0-.3.1-.1 0-.2.1-.3.1-.1.1-.1.1-.1.2s-.1.1-.1.2.1.2.1.3c.1.1.2.1.3.2l.4.2c.1.1.3.1.5.2s.3.1.5.2c.1.1.3.2.4.3s.2.3.3.5c.2.3.3.5.3.7zm4.9 0c0 .3-.1.6-.2.8-.1.2-.3.4-.5.6-.2.1-.5.3-.8.3-.3.1-.6.1-1 .1-.2 0-.4 0-.6-.1-.2 0-.3-.1-.5-.1-.1-.1-.3-.1-.3-.1-.1-.1-.1-.1-.2-.1-.1-.1-.1-.1-.1-.2s-.1-.2-.1-.4v-.3c0-.1 0-.1.1-.1 0-.1.1-.1.1-.1h.1c.1 0 .1 0 .2.1s.2.1.3.1c.1.1.3.1.5.1.2.1.3.1.6.1.1 0 .3 0 .3-.1.1 0 .2-.1.3-.1l.2-.2c.1-.1.1-.2.1-.3 0-.1-.1-.2-.1-.3-.1-.1-.2-.1-.3-.2l-.3-.2c-.1-.1-.3-.1-.5-.2s-.4-.1-.5-.2-.3-.2-.4-.3-.2-.3-.3-.5c-.1-.2-.1-.4-.1-.7s.1-.5.1-.7c.1-.2.3-.4.4-.6.2-.1.4-.3.7-.3.3-.1.6-.1.9-.1.1 0 .3 0 .5.1.1 0 .3.1.4.1.1.1.2.1.3.1.1.1.1.1.2.1s.1.1.1.1 0 .1.1.1v.8c0 .1 0 .1-.1.1h-.1c-.1 0-.1 0-.1-.1s-.2-.1-.3-.1c-.1-.1-.3-.1-.4-.1-.1-.1-.3-.1-.6-.1-.1 0-.3 0-.3.1-.1 0-.2.1-.3.1-.1.1-.1.1-.1.2s-.1.1-.1.2.1.2.1.3c.1.1.2.1.3.2l.4.2c.1.1.3.1.5.2s.3.1.5.2c.1.1.3.2.4.3s.2.3.3.5c.2.3.2.5.2.7zm6.3-1.3c0 .2-.1.3-.1.4-.1.1-.2.1-.3.1h-3.3c0 .2 0 .4.1.6.1.2.1.3.3.5.1.1.3.2.5.3.2.1.4.1.7.1.3 0 .5 0 .7-.1s.3-.1.6-.1c.1-.1.3-.1.3-.1.1-.1.2-.1.2-.1h.1l.1.1v.8c0 .1 0 .1-.1.1l-.3.1s-.1.1-.2.1c-.1.1-.3.1-.5.1-.2.1-.4.1-.6.1-.2 0-.5.1-.8.1-.5 0-.9-.1-1.2-.2-.3-.1-.7-.3-.9-.6-.3-.3-.4-.6-.6-1-.1-.2-.2-.7-.2-1.1s.1-.9.2-1.3.3-.7.6-1c.2-.3.6-.5.9-.6.3-.1.8-.2 1.2-.2.5 0 .8.1 1.2.2s.6.3.8.6c.2.2.3.6.5.8.1.3.1.7.1 1v.3zm-1.5-.5c0-.4-.1-.8-.3-1s-.5-.3-.8-.3c-.2 0-.3.1-.5.1-.1.1-.3.1-.3.3l-.2.4c-.1.1-.1.3-.1.6H58zm7.9 3.4c0 .1 0 .1-.1.1l-.1.1c-.1 0-.1.1-.2.1h-.7c-.1 0-.2 0-.2-.1-.1 0-.1-.1-.1-.1l-.1-.1v-3.1c0-.3 0-.5-.1-.6-.1-.1-.1-.3-.1-.4-.1-.1-.1-.2-.3-.3-.1-.1-.3-.1-.4-.1-.2 0-.4.1-.6.2-.2.1-.4.3-.6.6v3.6c0 .1 0 .1-.1.1l-.1.1s-.1.1-.2.1h-.7c-.1 0-.2 0-.2-.1-.1 0-.1-.1-.1-.1l-.1-.1V82l.1-.1s.1-.1.2-.1h.7c.1 0 .1 0 .2.1v.9c.3-.3.6-.6.9-.8.3-.1.6-.3 1-.3s.7.1 1 .2c.3.1.5.3.6.5.1.2.3.5.3.8.1.3.1.6.1 1v3.5zm5.7-.9v.5c0 .1 0 .1-.1.1l-.1.1c-.1.1-.1.1-.3.1l-.4.2c-.1.1-.3.1-.5.1s-.3.1-.6.1c-.4 0-.8-.1-1.1-.2s-.6-.3-.8-.6c-.2-.3-.4-.6-.5-.9-.1-.3-.1-.8-.1-1.2 0-.6.1-1 .2-1.4.1-.4.3-.8.6-1 .3-.3.6-.5.9-.6.3-.1.7-.2 1.1-.2.1 0 .3 0 .5.1.1 0 .3.1.4.1.1.1.3.1.3.1.1.1.2.1.2.1l.1.1s0 .1.1.1v.5c0 .2 0 .4-.1.5l-.1.1c-.1 0-.1 0-.2-.1s-.1-.1-.3-.2c-.1-.1-.2-.1-.3-.2s-.3-.1-.6-.1c-.4 0-.7.1-.9.5-.2.3-.3.8-.3 1.4 0 .3 0 .6.1.8.1.2.1.4.2.6.1.1.2.3.4.3.1.1.3.1.6.1s.4 0 .6-.1l.4-.2c.1-.1.2-.1.3-.2.1-.1.1-.1.2-.1h.1l.1.1-.1.6c0-.3 0-.1 0 0zm6.1-2c0 .2-.1.3-.1.4-.1.1-.2.1-.3.1H74c0 .2 0 .4.1.6.1.2.1.3.3.5.1.1.3.2.5.3.2.1.4.1.7.1s.5 0 .7-.1c.2-.1.3-.1.6-.1.1-.1.3-.1.3-.1.1-.1.2-.1.2-.1h.1l.1.1v.8c0 .1 0 .1-.1.1l-.1.1s-.1.1-.2.1c-.1.1-.3.1-.5.1-.2.1-.4.1-.6.1-.2 0-.5.1-.8.1-.5 0-.9-.1-1.2-.2-.3-.1-.7-.3-.9-.6-.3-.3-.4-.6-.6-1-.1-.3-.2-.8-.2-1.3s.1-.9.2-1.3.3-.7.6-1c.2-.3.6-.5.9-.6.3-.1.8-.2 1.2-.2.5 0 .8.1 1.2.2.3.1.6.3.8.6.2.2.3.6.5.8.1.3.1.7.1 1l-.2.5zm-1.5-.5c0-.4-.1-.8-.3-1s-.5-.3-.8-.3c-.2 0-.3.1-.5.1-.1.1-.3.1-.3.3l-.2.4c-.1.1-.1.3-.1.5h2.2z"></path>
	</g>
</svg>